<svg width="60" height="29" viewBox="0 0 60 29" fill="none" xmlns="http://www.w3.org/2000/svg">
<path d="M58.8662 6.66761C60.3875 5.13267 60.3765 2.65509 58.8415 1.13379C57.3066 -0.387518 54.829 -0.376465 53.3077 1.15848L44.1913 10.3566C40.4915 14.0896 37.9452 16.6503 35.7876 18.383C33.6918 20.0661 32.3457 20.6435 31.14 20.7972C30.383 20.8937 29.617 20.8937 28.86 20.7972C27.6544 20.6435 26.3082 20.0661 24.2124 18.383C22.0548 16.6503 19.5085 14.0896 15.8087 10.3566L6.6923 1.15848C5.17099 -0.376461 2.69342 -0.387514 1.15848 1.13379C-0.376465 2.6551 -0.387518 5.13267 1.13379 6.66761L10.4144 16.0314C13.9098 19.5582 16.7665 22.4407 19.312 24.4849C21.9589 26.6106 24.6455 28.1494 27.8705 28.5605C29.2845 28.7407 30.7155 28.7407 32.1295 28.5605C35.3545 28.1494 38.0411 26.6106 40.688 24.4849C43.2335 22.4407 46.0902 19.5583 49.5856 16.0314L58.8662 6.66761Z" fill="#D6603D"/>
</svg>
