<svg width="17" height="16" viewBox="0 0 17 16" fill="none" xmlns="http://www.w3.org/2000/svg">
<path d="M12.942 0.467309C12.6478 0.175726 12.173 0.177844 11.8814 0.472041C11.5898 0.766238 11.5919 1.24111 11.8861 1.53269L13.2965 2.93054C13.8714 3.50033 14.2567 3.88386 14.5158 4.20649C14.5188 4.21019 14.5217 4.21387 14.5247 4.21753C14.5334 4.22852 14.542 4.23934 14.5503 4.25H6C2.82436 4.25 0.25 6.82436 0.25 10C0.25 13.1756 2.82436 15.75 6 15.75H14C14.4142 15.75 14.75 15.4142 14.75 15C14.75 14.5858 14.4142 14.25 14 14.25H6C3.65279 14.25 1.75 12.3472 1.75 10C1.75 7.65279 3.65279 5.75 6 5.75H14.5503C14.5392 5.76422 14.5277 5.77872 14.5158 5.79351C14.2567 6.11614 13.8714 6.49967 13.2965 7.06946L11.8861 8.46731C11.5919 8.75889 11.5898 9.23376 11.8814 9.52796C12.173 9.82215 12.6478 9.82427 12.942 9.53269L14.3831 8.10438C14.9193 7.57299 15.3665 7.12978 15.6854 6.73276C16.0198 6.31633 16.2742 5.87869 16.3421 5.3455C16.3567 5.23079 16.3641 5.1154 16.3641 5C16.3641 4.88461 16.3568 4.76921 16.3421 4.65451C16.2742 4.12131 16.0198 3.68366 15.6854 3.26724C15.3665 2.87022 14.9193 2.42704 14.3832 1.89566L12.942 0.467309Z" fill="#2D264B"/>
</svg>
