<svg width="70" height="70" viewBox="0 0 70 70" fill="none" xmlns="http://www.w3.org/2000/svg">
<path d="M49.5833 54.6875C50.7915 54.6875 51.7708 53.7081 51.7708 52.5C51.7708 51.2919 50.7915 50.3125 49.5833 50.3125L8.75 50.3125C7.54188 50.3125 6.5625 51.2919 6.5625 52.5C6.5625 53.7081 7.54188 54.6875 8.75 54.6875L49.5833 54.6875Z" fill="#2D264B"/>
<path d="M49.5833 37.1875C50.7915 37.1875 51.7708 36.2081 51.7708 35C51.7708 33.7919 50.7915 32.8125 49.5833 32.8125L8.75 32.8125C7.54188 32.8125 6.5625 33.7919 6.5625 35C6.5625 36.2081 7.54188 37.1875 8.75 37.1875L49.5833 37.1875Z" fill="#2D264B"/>
<path d="M49.5833 19.6875C50.7915 19.6875 51.7708 18.7081 51.7708 17.5C51.7708 16.2919 50.7915 15.3125 49.5833 15.3125L8.75 15.3125C7.54188 15.3125 6.5625 16.2919 6.5625 17.5C6.5625 18.7081 7.54188 19.6875 8.75 19.6875L49.5833 19.6875Z" fill="#2D264B"/>
<path d="M55.4167 35C55.4167 33.3892 56.7225 32.0833 58.3333 32.0833C59.9442 32.0833 61.25 33.3892 61.25 35C61.25 36.6108 59.9442 37.9167 58.3333 37.9167C56.7225 37.9167 55.4167 36.6108 55.4167 35Z" fill="#2D264B"/>
<path d="M55.4167 52.5C55.4167 50.8892 56.7225 49.5833 58.3333 49.5833C59.9442 49.5833 61.25 50.8892 61.25 52.5C61.25 54.1108 59.9442 55.4167 58.3333 55.4167C56.7225 55.4167 55.4167 54.1108 55.4167 52.5Z" fill="#2D264B"/>
<path d="M55.4167 17.5C55.4167 15.8892 56.7225 14.5833 58.3333 14.5833C59.9442 14.5833 61.25 15.8892 61.25 17.5C61.25 19.1108 59.9442 20.4167 58.3333 20.4167C56.7225 20.4167 55.4167 19.1108 55.4167 17.5Z" fill="#2D264B"/>
</svg>
